<?xml version="1.0" encoding="UTF-8" standalone="no"?>
<!-- Created with Inkscape (http://www.inkscape.org/) -->

<svg
   xmlns:dc="http://purl.org/dc/elements/1.1/"
   xmlns:cc="http://creativecommons.org/ns#"
   xmlns:rdf="http://www.w3.org/1999/02/22-rdf-syntax-ns#"
   xmlns:svg="http://www.w3.org/2000/svg"
   xmlns="http://www.w3.org/2000/svg"
   xmlns:xlink="http://www.w3.org/1999/xlink"
   xmlns:sodipodi="http://sodipodi.sourceforge.net/DTD/sodipodi-0.dtd"
   xmlns:inkscape="http://www.inkscape.org/namespaces/inkscape"
   sodipodi:docname="drawing.svg"
   inkscape:version="0.48.5 r10040"
   version="1.1"
   id="svg2"
   height="1024"
   width="1024">
  <sodipodi:namedview
     id="base"
     pagecolor="#ffffff"
     bordercolor="#666666"
     borderopacity="1.0"
     inkscape:pageopacity="0.0"
     inkscape:pageshadow="2"
     inkscape:zoom="0.32675176"
     inkscape:cx="873.48374"
     inkscape:cy="483.46696"
     inkscape:document-units="px"
     inkscape:current-layer="layer1"
     showgrid="false"
     inkscape:window-width="1280"
     inkscape:window-height="751"
     inkscape:window-x="0"
     inkscape:window-y="0"
     inkscape:window-maximized="1" />
  <defs
     id="defs4">
    <linearGradient
       id="linearGradient3755">
      <stop
         style="stop-color:#d4b6f9;stop-opacity:1;"
         offset="0"
         id="stop3757" />
      <stop
         style="stop-color:#d469e1;stop-opacity:1;"
         offset="1"
         id="stop3759" />
    </linearGradient>
    <linearGradient
       inkscape:collect="always"
       xlink:href="#linearGradient3755"
       id="linearGradient3761"
       x1="534.28571"
       y1="31.790754"
       x2="534.28571"
       y2="1054.7251"
       gradientUnits="userSpaceOnUse" />
  </defs>
  <metadata
     id="metadata7">
    <rdf:RDF>
      <cc:Work
         rdf:about="">
        <dc:format>image/svg+xml</dc:format>
        <dc:type
           rdf:resource="http://purl.org/dc/dcmitype/StillImage" />
        <dc:title />
      </cc:Work>
    </rdf:RDF>
  </metadata>
  <g
     inkscape:label="Layer 1"
     inkscape:groupmode="layer"
     id="layer1"
     transform="translate(0,-28.362183)">
    <rect
       style="fill:url(#linearGradient3761);fill-opacity:1.0;stroke:#000000;stroke-width:0;stroke-miterlimit:4;stroke-opacity:1;stroke-dasharray:none"
       id="rect2985"
       width="1024"
       height="1024"
       x="0"
       y="28.362183" />
    <path
       style="fill:#ffffff;fill-opacity:1;stroke:none"
       d="m 316.81998,80.168534 c -28.08665,-5.353863 -50.96399,14.483363 -50.89117,44.225676 0,0 1.43622,586.67307 1.43622,586.67307 0.0557,22.74827 19.87104,40.91012 44.12884,40.93836 0,0 471.45561,0.54891 471.45561,0.54891 18.01518,0.021 34.31204,-15.32503 36.74908,-34.56347 0,0 61.50569,-485.53745 61.50569,-485.53745 3.05071,-24.08284 -10.35749,-46.67681 -30.32893,-50.48375 0,0 -534.05534,-101.801346 -534.05534,-101.801346 0,0 0,0 0,0 m 93.26313,116.351426 c 9.12235,1.47856 15.64489,6.23694 19.56334,14.25427 3.93171,7.94106 5.64755,19.21684 5.16517,33.81924 -0.49429,14.95956 -2.95259,25.62059 -7.35998,31.99048 -4.37085,6.33431 -10.95751,8.88903 -19.78634,7.68333 -9.00906,-1.2303 -15.53887,-5.68504 -19.57641,-13.36857 -4.02547,-7.72058 -5.86065,-19.03991 -5.53178,-33.98623 0.33347,-15.15563 2.72199,-26.03859 7.19705,-32.63187 4.47847,-6.6354 11.26099,-9.23022 20.32895,-7.76065 0,0 0,0 0,0 m 128.55338,20.83484 c 8.45658,1.37066 14.40582,5.89904 17.84364,13.56612 3.45286,7.59542 4.75306,18.40166 3.91658,32.41206 -0.85724,14.35636 -3.4315,24.59888 -7.70897,30.73223 -4.24252,6.09914 -10.44964,8.57981 -18.64523,7.46059 -8.36131,-1.14185 -14.32506,-5.3883 -17.87965,-12.74268 -3.54166,-7.38849 -4.98028,-18.2419 -4.2724,-32.57615 0.71761,-14.53155 3.26755,-24.96958 7.61038,-31.31109 4.34704,-6.38176 10.73115,-8.90312 19.13565,-7.54108 0,0 0,0 0,0 m 119.3248,19.33916 c 7.86111,1.27415 13.30093,5.59266 16.31548,12.93817 3.031,7.278 3.9692,17.65176 2.82906,31.11591 -1.16864,13.79954 -3.83671,23.65504 -7.99131,29.56876 -4.12114,5.88081 -9.98488,8.29133 -17.613,7.24961 -7.78099,-1.06261 -13.24105,-5.11858 -16.3699,-12.17034 -3.11527,-7.08328 -4.1767,-17.50269 -3.14384,-31.27247 1.04682,-13.95627 3.69748,-23.98896 7.91518,-30.09721 4.22259,-6.14677 10.24705,-8.59833 18.05832,-7.33243 0,0 0,0 0,0 m 56.50676,9.15814 c 7.58669,1.22966 12.76283,5.44519 15.58473,12.63968 2.83896,7.1289 3.6138,17.29911 2.33837,30.50582 -1.30742,13.53702 -3.98565,23.21402 -8.08128,29.02373 -4.06288,5.77738 -9.76703,8.15421 -17.13326,7.14826 -7.51322,-1.02603 -12.7421,-4.99277 -15.6769,-11.9022 -2.92102,-6.93977 -3.81216,-17.1548 -2.63447,-30.65857 1.1935,-13.68523 3.8562,-23.53158 8.01388,-29.52957 4.16286,-6.0357 10.05099,-8.44876 17.58893,-7.22715 0,0 0,0 0,0 m 54.54879,8.84081 c 7.32637,1.18747 12.2827,5.30914 14.92322,12.35851 2.65809,6.98559 3.28006,16.95987 1.8791,29.91857 -1.43624,13.28412 -4.17962,22.78075 -8.2179,28.49008 -4.00621,5.67761 -9.52946,8.02557 -16.64705,7.05357 -7.25905,-0.99132 -12.29836,-4.8765 -15.05056,-11.64923 -2.73825,-6.80191 -3.4408,-16.81619 -2.12881,-30.06394 1.32949,-13.42444 4.03137,-23.08658 8.13058,-28.97816 4.10468,-5.92854 9.8327,-8.309 17.11142,-7.1294 0,0 0,0 0,0 M 474.18628,208.33249 c 0,0 7.64089,1.23516 7.64089,1.23516 0,0 -3.17038,74.38675 -3.17038,74.38675 0,0 14.65057,2.04405 14.65057,2.04405 0,0 -0.37599,8.21839 -0.37599,8.21839 0,0 -39.02065,-5.34842 -39.02065,-5.34842 0,0 0.31134,-8.32317 0.31134,-8.32317 0,0 15.13963,2.11229 15.13963,2.11229 0,0 2.2462,-55.27598 2.2462,-55.27598 0,0 -15.30787,-2.38668 -15.30787,-2.38668 0,0 0.28696,-7.67142 0.28696,-7.67142 2.08525,0.32991 4.30868,0.48379 6.7003,0.48409 2.3901,-0.0371 4.20846,-0.30382 5.45603,-0.8614 1.5505,-0.6978 2.78023,-1.68906 3.69252,-2.97939 0.94667,-1.3226 1.51877,-3.21103 1.75045,-5.63427 0,0 0,0 0,0 m 123.87288,20.02425 c 0,0 7.09308,1.14661 7.09308,1.14661 0,0 -4.90446,71.41549 -4.90446,71.41549 0,0 13.58712,1.89568 13.58712,1.89568 0,0 -0.56538,7.89663 -0.56538,7.89663 0,0 -36.26872,-4.97123 -36.26872,-4.97123 0,0 0.50988,-7.99337 0.50988,-7.99337 0,0 14.06656,1.96257 14.06656,1.96257 0,0 3.54566,-53.07012 3.54566,-53.07012 0,0 -14.21081,-2.21563 -14.21081,-2.21563 0,0 0.46949,-7.36027 0.46949,-7.36027 1.93532,0.30619 4.03692,0.44803 6.26669,0.43655 2.2294,-0.0473 3.93182,-0.31216 5.10973,-0.85318 1.46405,-0.67705 2.63675,-1.63404 3.52125,-2.87636 0.91742,-1.27343 1.50039,-3.08776 1.77991,-5.41337 0,0 0,0 0,0 M 409.82122,206.02473 c -3.20503,-0.51051 -5.85492,-0.20571 -8.01373,0.95315 -2.12591,1.16513 -3.87707,3.18634 -5.18584,6.01996 -1.23486,2.65151 -2.09533,6.21788 -2.65123,10.69399 -0.52083,4.47406 -0.8516,9.38501 -0.98208,14.77682 -0.14305,5.90944 -0.0913,10.88225 0.18698,14.89722 0.27776,4.00744 0.99099,7.66479 2.13546,10.95272 1.0452,3.07988 2.58036,5.53648 4.56853,7.35191 2.01823,1.81684 4.67696,2.93217 8.03939,3.40033 3.15467,0.43925 5.79263,0.0651 7.90976,-1.09343 2.11579,-1.15782 3.79503,-3.10977 5.01932,-5.88524 1.2606,-2.84676 2.15588,-6.28307 2.68181,-10.28993 0.5612,-4.04525 0.92246,-8.95278 1.10087,-14.72796 0.17643,-5.7139 0.12036,-10.71817 -0.18635,-15.01354 -0.27377,-4.29878 -0.96019,-7.99557 -2.08451,-11.1463 -1.09394,-3.11337 -2.66106,-5.60416 -4.68317,-7.41873 -1.99192,-1.81235 -4.62219,-2.95585 -7.85519,-3.47096 0,0 0,0 0,0 m 128.31795,20.44192 c -2.97114,-0.47325 -5.48082,-0.17315 -7.52205,0.9485 -2.01076,1.12747 -3.66145,3.079 -4.9559,5.80171 -1.2208,2.54783 -2.15144,5.96566 -2.78892,10.25962 -0.6048,4.29209 -1.0444,9.00245 -1.31036,14.17332 -0.29157,5.66779 -0.3429,10.44181 -0.19132,14.29143 0.15127,3.84267 0.71757,7.3478 1.69546,10.49686 0.8911,2.95011 2.2218,5.29552 4.0254,7.02861 1.83169,1.73442 4.3124,2.79762 7.43281,3.23208 2.92782,0.40767 5.396,0.037 7.39981,-1.08415 2.0026,-1.12048 3.61954,-3.00118 4.8344,-5.67015 1.25056,-2.73747 2.17631,-6.03898 2.77297,-9.8861 0.63055,-3.88393 1.09765,-8.59399 1.41738,-14.13518 0.31623,-5.48191 0.39694,-10.2816 0.22529,-14.39981 -0.14085,-4.12132 -0.71558,-7.66828 -1.67933,-10.68403 -0.93638,-2.97987 -2.2965,-5.35496 -4.13181,-7.08459 -1.80714,-1.72751 -4.22651,-2.81056 -7.22381,-3.28812 0,0 0,0 0,0 m 119.12322,18.97715 c -2.76197,-0.43994 -5.11287,-0.13965 -7.04753,0.94704 -1.90631,1.09211 -3.49774,2.97359 -4.77653,5.59373 -1.20552,2.45194 -2.1627,5.73785 -2.86889,9.86376 -0.67566,4.12419 -1.20792,8.64954 -1.59005,13.61667 -0.41892,5.44493 -0.62182,10.02612 -0.57991,13.72339 0.0418,3.69083 0.47993,7.0558 1.31166,10.07709 0.75587,2.83072 1.96922,5.08304 3.60892,6.74067 1.66599,1.6589 3.95566,2.67008 6.85929,3.07436 2.72457,0.37936 5.03994,0.0126 6.94089,-1.07343 1.89984,-1.08545 3.42806,-2.90426 4.63176,-5.4746 1.23878,-2.63629 2.18854,-5.81315 2.84481,-9.51276 0.68883,-3.73493 1.27702,-8.25816 1.71798,-13.58345 0.4361,-5.26788 0.60368,-9.88361 0.54898,-13.8386 -0.0259,-3.95784 -0.44061,-7.35689 -1.26337,-10.24853 -0.79808,-2.85712 -2.03856,-5.13622 -3.70818,-6.78821 -1.64326,-1.65 -3.84336,-2.67316 -6.62983,-3.11713 0,0 0,0 0,0 m 56.41699,8.9876 c -2.66558,-0.42457 -4.94307,-0.12449 -6.82813,0.94552 -1.85769,1.07523 -3.42105,2.92353 -4.69162,5.49524 -1.19755,2.40663 -2.16573,5.63032 -2.90208,9.67701 -0.70682,4.04505 -1.28019,8.48319 -1.71407,13.35431 -0.47568,5.33987 -0.73127,9.83252 -0.73863,13.45799 -0.007,3.61926 0.37277,6.9182 1.13811,9.87934 0.69447,2.77451 1.83893,4.98086 3.4035,6.60309 1.59007,1.62347 3.79185,2.61037 6.59544,3.00072 2.6308,0.36631 4.87542,0.002 6.72844,-1.06764 1.85194,-1.06873 3.35384,-2.85599 4.55142,-5.37969 1.23237,-2.58843 2.19207,-5.70639 2.87452,-9.33636 0.7144,-3.66461 1.31173,-8.1064 1.80669,-13.32992 0.48953,-5.16701 0.74082,-9.68915 0.73868,-13.5672 0.0258,-3.88081 -0.33173,-7.21266 -1.09046,-10.04593 -0.73527,-2.79939 -1.90586,-5.03094 -3.49955,-6.64655 -1.5682,-1.61369 -3.68297,-2.61143 -6.37226,-3.03993 0,0 0,0 0,0 m 54.46559,8.67674 c -2.57414,-0.41 -4.78183,-0.11029 -6.61956,0.94352 -1.81125,1.05887 -3.37692,2.87051 -4.63907,5.39554 -1.18942,2.36301 -2.13787,5.53136 -2.90188,9.50178 -0.73545,3.96886 -1.34674,8.32309 -1.82864,13.1018 -0.5283,5.23877 -0.83287,9.6462 -0.88616,13.20258 -0.0532,3.55039 0.27264,6.78583 0.97561,9.68913 0.63677,2.72045 1.7163,4.88261 3.20993,6.47089 1.51829,1.58947 3.6368,2.55315 6.34546,2.93028 2.54177,0.35391 4.69025,-0.0126 6.49749,-1.06565 1.80621,-1.05252 3.31146,-2.80526 4.50265,-5.28398 1.22567,-2.54228 2.19407,-5.60349 2.90058,-9.16638 0.73783,-3.59685 1.37214,-7.95582 1.91723,-13.08132 0.53909,-5.06984 0.8394,-9.5064 0.88631,-13.31043 0.074,-3.80667 -0.23001,-7.0739 -0.92859,-9.85108 -0.67627,-2.74391 -1.78101,-4.92979 -3.30298,-6.51053 -1.49728,-1.57886 -3.53127,-2.55234 -6.12838,-2.96615 0,0 0,0 0,0 m -362.00797,76.62292 c 8.86094,1.06745 15.20083,5.31138 19.01493,12.71307 3.82753,7.33067 5.50577,17.8778 5.05135,31.63408 -0.46575,14.09534 -2.84464,24.21553 -7.12216,30.36515 -4.24209,6.11495 -10.6409,8.74897 -19.22101,7.92107 -8.75394,-0.84468 -15.10054,-4.81003 -19.02769,-11.89989 -3.91482,-7.124 -5.70445,-17.70885 -5.39484,-31.77916 0.31386,-14.26465 2.62559,-24.58196 6.96578,-30.93896 4.3434,-6.39664 10.92694,-9.07613 19.73364,-8.01536 0,0 0,0 0,0 m 124.99845,15.05713 c 8.23247,0.99175 14.0309,5.04524 17.39077,12.14339 3.3749,7.03121 4.65994,17.16337 3.87024,30.39047 -0.80946,13.55603 -3.29847,23.29736 -7.45352,29.22618 -4.12114,5.89546 -10.16142,8.44892 -18.1432,7.67876 -8.14202,-0.78563 -13.95386,-4.57963 -17.42469,-11.38486 -3.45777,-6.83681 -4.87362,-17.0094 -4.20576,-30.53334 0.67692,-13.7077 3.1424,-23.62409 7.35812,-29.74667 4.21969,-6.16053 10.42745,-8.75927 18.60804,-7.77393 0,0 0,0 0,0 m 59.16951,7.12748 c 7.94301,0.95687 13.49326,4.92119 16.64627,11.87658 3.16873,6.89034 4.27616,16.82692 3.33669,29.80434 -0.96304,13.30148 -3.49925,22.86379 -7.5955,28.68806 -4.06307,5.79153 -9.93684,8.30648 -17.64265,7.56294 -7.85985,-0.75841 -13.42631,-4.47201 -16.68918,-11.14322 -3.24952,-6.70162 -4.48051,-16.67817 -3.65262,-29.94439 0.83903,-13.44505 3.35502,-23.1742 7.51097,-29.18593 4.16025,-6.0489 10.19376,-8.60899 18.08603,-7.65838 0,0 0,0 0,0 m 112.25065,13.52156 c 7.4081,0.89243 12.47248,4.68574 15.24762,11.37203 2.79197,6.62472 3.57758,16.19188 2.36988,28.69717 -1.23818,12.82006 -3.8262,22.04632 -7.80951,27.67216 -3.95147,5.59426 -9.515,8.03552 -16.71013,7.34125 -7.33781,-0.70803 -12.45254,-4.27035 -15.33512,-10.68861 -2.86885,-6.44652 -3.7648,-16.05266 -2.65032,-28.83168 1.12928,-12.94871 3.70181,-22.32721 7.74289,-28.12892 4.04597,-5.83739 9.78513,-8.31986 17.14469,-7.4334 0,0 0,0 0,0 m 53.28643,6.41881 c 7.16068,0.86262 12.01591,4.57732 14.61824,11.13657 2.61964,6.49931 3.25934,15.89176 1.93156,28.17352 -1.36142,12.59205 -4.0127,21.6547 -7.94175,27.18636 -3.89785,5.50064 -9.28868,7.90933 -16.2473,7.23789 -7.09607,-0.68471 -12.03116,-4.17858 -14.73985,-10.47741 -2.69479,-6.32608 -3.41025,-15.75418 -2.16751,-28.30272 1.25913,-12.71398 3.86937,-21.92477 7.85522,-27.62685 3.991,-5.73706 9.5782,-8.18415 16.69139,-7.32736 0,0 0,0 0,0 M 468.43455,348.57412 c 0,0 7.43012,0.89209 7.43012,0.89209 0,0 -2.98908,70.13328 -2.98908,70.13328 0,0 14.25485,1.41508 14.25485,1.41508 0,0 -0.35476,7.75431 -0.35476,7.75431 0,0 -37.9605,-3.6808 -37.9605,-3.6808 0,0 0.29356,-7.84795 0.29356,-7.84795 0,0 14.72465,1.46173 14.72465,1.46173 0,0 2.11767,-52.11308 2.11767,-52.11308 0,0 -14.88376,-1.70677 -14.88376,-1.70677 0,0 0.27037,-7.22776 0.27037,-7.22776 2.02715,0.23684 4.1885,0.30318 6.51324,0.21913 2.32329,-0.11919 4.0906,-0.43428 5.30272,-1.00291 1.50646,-0.71124 2.70077,-1.68731 3.58608,-2.93354 0.91872,-1.27781 1.4726,-3.07476 1.69484,-5.36281 0,0 0,0 0,0 m 177.70953,21.33655 c 0,0 6.64276,0.79756 6.64276,0.79756 0,0 -5.36844,66.21827 -5.36844,66.21827 0,0 12.82757,1.2734 12.82757,1.2734 0,0 -0.61502,7.32965 -0.61502,7.32965 0,0 -34.15337,-3.31163 -34.15337,-3.31163 0,0 0.56598,-7.41332 0.56598,-7.41332 0,0 13.24088,1.31443 13.24088,1.31443 0,0 3.90074,-49.20621 3.90074,-49.20621 0,0 -13.36817,-1.53297 -13.36817,-1.53297 0,0 0.52055,-6.81823 0.52055,-6.81823 1.82008,0.21265 3.76788,0.26381 5.86899,0.17226 2.10129,-0.12471 3.70837,-0.43124 4.82409,-0.97398 1.38683,-0.67882 2.50205,-1.6058 3.34865,-2.78596 0.87798,-1.2101 1.47703,-2.90422 1.76479,-5.06327 0,0 0,0 0,0 M 405.89054,348.67755 c -3.11302,-0.36684 -5.68614,0.0134 -7.78163,1.17929 -2.0635,1.1706 -3.76243,3.13298 -5.03118,5.84367 -1.19716,2.53687 -2.0301,5.92095 -2.56666,10.14993 -0.50252,4.22605 -0.8202,8.85655 -0.94303,13.93261 -0.13469,5.56374 -0.0809,10.23999 0.1923,14.00741 0.27267,3.7606 0.96806,7.17678 2.08209,10.23051 1.01754,2.8616 2.5106,5.11976 4.44334,6.75883 1.96207,1.63945 4.54593,2.59646 7.81313,2.91993 3.06549,0.30349 5.62735,-0.10506 7.68353,-1.26924 2.05493,-1.16351 3.68604,-3.09476 4.87326,-5.7497 1.22242,-2.72325 2.0882,-5.9529 2.59529,-9.7421 0.54164,-3.82633 0.88929,-8.49269 1.05736,-13.93298 0.16617,-5.38217 0.1071,-10.08819 -0.19482,-14.11823 -0.26989,-4.03415 -0.94012,-7.48732 -2.03521,-10.41121 -1.06548,-2.88966 -2.58997,-5.17698 -4.55572,-6.81212 -1.93634,-1.63404 -4.49199,-2.61649 -7.63236,-2.98668 0,0 0,0 0,0 m 124.7758,14.70634 c -2.89225,-0.34082 -5.33406,0.0302 -7.31865,1.15808 -1.95488,1.13227 -3.55809,3.02768 -4.81346,5.6366 -1.18399,2.44169 -2.08433,5.69236 -2.69811,9.75773 -0.58198,4.06269 -1.00255,8.51364 -1.25349,13.39245 -0.27513,5.34798 -0.31782,9.84615 -0.16443,13.46677 0.15308,3.61428 0.7096,6.89631 1.66622,9.82873 0.87189,2.74818 2.17081,4.91149 3.92917,6.48153 1.7858,1.5704 4.20245,2.48585 7.24104,2.78667 2.85118,0.28227 5.25177,-0.11868 7.20096,-1.24485 1.94804,-1.12553 3.52126,-2.98815 4.6997,-5.54537 1.21308,-2.62297 2.10695,-5.7317 2.68137,-9.37717 0.60734,-3.68116 1.0561,-8.16918 1.35795,-13.40035 0.29851,-5.17485 0.36888,-9.69853 0.19472,-13.57125 -0.14416,-3.87652 -0.70971,-7.19667 -1.65301,-10.00273 -0.91656,-2.77307 -2.2445,-4.96163 -4.03383,-6.52556 -1.76181,-1.56288 -4.11833,-2.49732 -7.03619,-2.84129 0,0 0,0 0,0 m 59.07017,6.96213 c -2.79059,-0.32884 -5.15531,0.0395 -7.08833,1.14935 -1.90432,1.11402 -3.47905,2.97576 -4.72724,5.5366 -1.17697,2.39673 -2.09071,5.58635 -2.73849,9.57457 -0.61707,3.9856 -1.08337,8.35184 -1.39154,13.13761 -0.33783,5.24621 -0.43965,9.65862 -0.34013,13.21001 0.0993,3.5453 0.593,6.76409 1.47812,9.63936 0.80574,2.69475 2.03209,4.81509 3.71056,6.35268 1.70501,1.53795 4.02869,2.43234 6.96186,2.72274 2.75234,0.27248 5.07835,-0.12471 6.97773,-1.23277 1.89826,-1.10745 3.44405,-2.93755 4.61747,-5.44855 1.20778,-2.57554 2.11341,-5.62716 2.71742,-9.20478 0.63626,-3.61263 1.12999,-8.01647 1.4916,-13.14896 0.35763,-5.07704 0.486,-9.51472 0.36934,-13.31326 -0.0876,-3.80221 -0.58997,-7.05782 -1.46432,-9.80838 -0.84889,-2.71818 -2.10319,-4.86225 -3.81173,-6.39278 -1.68191,-1.52951 -3.94694,-2.44154 -6.76232,-2.77344 0,0 0,0 0,0 m 112.07288,13.20915 c -2.60269,-0.30669 -4.82457,0.0563 -6.66133,1.13161 -1.81002,1.07921 -3.33072,2.87709 -4.56378,5.34687 -1.16225,2.3116 -2.09852,5.38574 -2.80641,9.22801 -0.6791,3.83987 -1.22694,8.046 -1.63756,12.6559 -0.4502,5.05377 -0.68783,9.30096 -0.6855,12.72155 0.002,3.41491 0.38203,6.51427 1.13686,9.28163 0.68518,2.59386 1.80816,4.63607 3.33976,6.11256 1.55655,1.47685 3.70866,2.33175 6.44681,2.60284 2.56949,0.25439 4.75707,-0.13533 6.56338,-1.20888 1.80531,-1.07296 3.2699,-2.84424 4.43228,-5.26766 1.19614,-2.48568 2.12149,-5.42912 2.77774,-8.87839 0.68732,-3.48293 1.26121,-7.72755 1.72987,-12.67346 0.46349,-4.8921 0.69614,-9.16721 0.68319,-12.82561 0.0143,-3.66179 -0.34407,-6.79215 -1.09267,-9.43801 -0.72558,-2.61459 -1.87449,-4.67823 -3.43462,-6.14598 -1.53517,-1.46678 -3.60206,-2.33341 -6.22802,-2.64298 0,0 0,0 0,0 m 53.20694,6.27109 c -2.51578,-0.29645 -4.67136,0.0639 -6.4632,1.12265 -1.76596,1.06259 -3.28974,2.82681 -4.51493,5.25349 -1.15464,2.27127 -2.07153,5.29404 -2.8059,9.06726 -0.7065,3.77091 -1.29062,7.90129 -1.7471,12.42798 -0.50047,4.96274 -0.78488,9.13334 -0.82637,12.49204 -0.0415,3.35322 0.28651,6.39608 0.98191,9.11243 0.63021,2.54616 1.69136,4.54998 3.15543,5.99767 1.48823,1.44803 3.56113,2.28442 6.20898,2.54656 2.48483,0.24601 4.5799,-0.14281 6.34275,-1.19989 1.76187,-1.05653 3.23081,-2.79556 4.38724,-5.17742 1.18991,-2.44304 2.12338,-5.33521 2.80268,-8.72366 0.70979,-3.42149 1.31942,-7.5907 1.83601,-12.44826 0.51088,-4.80455 0.79039,-9.00272 0.82428,-12.59481 0.0603,-3.59536 -0.24698,-6.66821 -0.93826,-9.26462 -0.66935,-2.56568 -1.75555,-4.58964 -3.24743,-6.02783 -1.46769,-1.43724 -3.45776,-2.28435 -5.99609,-2.58359 0,0 0,0 0,0 m -290.69125,89.85176 c 8.309,0.67597 14.2128,4.37628 17.70639,11.0849 3.5079,6.64416 4.95605,16.37269 4.36247,29.1128 -0.60848,13.05769 -2.96627,22.47245 -7.06276,28.3111 -4.06286,5.80548 -10.11054,8.46228 -18.16496,7.98883 -8.21572,-0.48293 -14.12899,-3.93563 -17.72918,-10.36098 -3.5873,-6.45581 -5.13583,-16.15017 -4.66804,-29.17011 0.47411,-13.19603 2.77497,-22.84472 6.92872,-28.87004 4.15714,-6.06187 10.37117,-8.76801 18.62736,-8.0965 0,0 0,0 0,0 m 117.39525,9.54942 c 7.74554,0.63012 13.16516,4.18035 16.254,10.63601 3.10444,6.39462 4.20293,15.76821 3.31369,28.05152 -0.91166,12.59198 -3.36357,21.67628 -7.34745,27.31551 -3.95162,5.60726 -9.67592,8.18107 -17.19293,7.73921 -7.66629,-0.45064 -13.10093,-3.76921 -16.29439,-9.95776 -3.18005,-6.21687 -4.39996,-15.56048 -3.61683,-28.10957 0.79356,-12.71624 3.23008,-22.0148 7.26948,-27.82907 4.04348,-5.84939 9.91938,-8.47173 17.61442,-7.84585 0,0 0,0 0,0 m 109.55602,8.91173 c 7.23754,0.5888 12.19458,3.99809 14.92389,10.2191 2.74594,6.16307 3.53713,15.2067 2.39193,27.06488 -1.17428,12.15839 -3.67478,20.93649 -7.55176,26.38947 -3.846,5.42213 -9.27562,7.91794 -16.30726,7.50461 -7.17021,-0.42147 -12.17542,-3.6158 -15.00716,-9.5843 -2.81804,-5.99491 -3.71977,-15.01028 -2.66355,-27.1212 1.07007,-12.26993 3.56088,-21.24722 7.49171,-26.86478 3.93548,-5.65135 9.53299,-8.19251 16.7222,-7.60778 0,0 0,0 0,0 M 401.10982,475.82037 c 0,0 7.46171,0.6042 7.46171,0.6042 0,0 -1.95238,67.49498 -1.95238,67.49498 0,0 14.38031,0.88295 14.38031,0.88295 0,0 -0.2401,7.4651 -0.2401,7.4651 0,0 -38.29112,-2.26785 -38.29112,-2.26785 0,0 0.17772,-7.55214 0.17772,-7.55214 0,0 14.85207,0.91191 14.85207,0.91191 0,0 1.34772,-50.1498 1.34772,-50.1498 0,0 -15.01425,-1.13959 -15.01425,-1.13959 0,0 0.16364,-6.95339 0.16364,-6.95339 2.04487,0.15937 4.22149,0.18502 6.56126,0.026 2.3378,-0.1927 4.11368,-0.58944 5.32578,-1.17653 1.50637,-0.73405 2.6944,-1.71204 3.56719,-2.93918 0.90595,-1.25862 1.47109,-3.00095 1.66045,-5.20671 0,0 0,0 0,0 m 121.65815,9.85103 c 0,0 6.97896,0.56511 6.97896,0.56511 0,0 -3.63217,65.02003 -3.63217,65.02003 0,0 13.37383,0.82116 13.37383,0.82116 0,0 -0.42376,7.19674 -0.42376,7.19674 0,0 -35.69067,-2.11384 -35.69067,-2.11384 0,0 0.36979,-7.27761 0.36979,-7.27761 0,0 13.83856,0.84968 13.83856,0.84968 0,0 2.60582,-48.31301 2.60582,-48.31301 0,0 -13.97871,-1.06099 -13.97871,-1.06099 0,0 0.34017,-6.69461 0.34017,-6.69461 1.90338,0.14834 3.9656,0.17015 6.1528,0.0113 2.18638,-0.19132 3.85401,-0.5777 5.00078,-1.14596 1.42528,-0.71046 2.56013,-1.65499 3.40749,-2.83862 0.87916,-1.21402 1.42122,-2.8954 1.65711,-5.01937 0,0 0,0 0,0 m 113.42775,9.18459 c 0,0 6.48366,0.525 6.48366,0.525 0,0 -5.08485,62.72039 -5.08485,62.72039 0,0 12.52606,0.76908 12.52606,0.76908 0,0 -0.5829,6.94693 -0.5829,6.94693 0,0 -33.34581,-1.97495 -33.34581,-1.97495 0,0 0.53613,-7.02227 0.53613,-7.02227 0,0 12.92511,0.7936 12.92511,0.7936 0,0 3.69457,-46.60528 3.69457,-46.60528 0,0 -13.04648,-0.99024 -13.04648,-0.99024 0,0 0.49276,-6.45427 0.49276,-6.45427 1.77606,0.13842 3.67393,0.15214 5.72359,-0.006 2.0498,-0.18968 3.61959,-0.56618 4.70694,-1.11676 1.35159,-0.68835 2.4376,-1.60165 3.26094,-2.74475 0.85388,-1.17247 1.43449,-2.79223 1.71028,-4.84023 0,0 0,0 0,0 m 105.97719,8.58129 c 0,0 6.06518,0.49112 6.06518,0.49112 0,0 -6.3441,60.57693 -6.3441,60.57693 0,0 11.73052,0.72025 11.73052,0.72025 0,0 -0.72101,6.71383 -0.72101,6.71383 0,0 -31.22466,-1.84933 -31.22466,-1.84933 0,0 0.68041,-6.78418 0.68041,-6.78418 0,0 12.09922,0.74288 12.09922,0.74288 0,0 4.63821,-45.01391 4.63821,-45.01391 0,0 -12.20449,-0.92633 -12.20449,-0.92633 0,0 0.62487,-6.23056 0.62487,-6.23056 1.66109,0.12947 3.43954,0.13829 5.36469,-0.0193 1.92615,-0.18786 3.40709,-0.55491 4.44024,-1.08886 1.28432,-0.66756 2.32535,-1.55162 3.12594,-2.65687 0.82992,-1.13366 1.41495,-2.69838 1.72498,-4.67563 0,0 0,0 0,0 M 463.98298,487.95404 c -2.91898,-0.23025 -5.37328,0.20839 -7.35544,1.35905 -1.95214,1.15384 -3.5384,3.02922 -4.76341,5.57859 -1.15564,2.38626 -2.01325,5.54047 -2.5698,9.46807 -0.52457,3.92398 -0.84866,8.25177 -1.0274,12.94903 -0.19597,5.14912 -0.20259,9.43815 0.007,12.91298 0.20912,3.46882 0.81967,6.60482 1.82801,9.39144 0.92019,2.61241 2.26176,4.64837 4.05725,6.09871 1.82314,1.44979 4.27201,2.24892 7.33821,2.43639 2.87714,0.17594 5.28992,-0.28984 7.2368,-1.43767 1.94576,-1.14718 3.50258,-2.99037 4.65104,-5.48807 1.18233,-2.56203 2.03559,-5.58033 2.5588,-9.10381 0.55579,-3.55885 0.938,-7.8547 1.16232,-12.89297 0.2218,-4.98392 0.22367,-9.33417 -0.0109,-13.05048 -0.20442,-3.72089 -0.79056,-6.92392 -1.78375,-9.58904 -0.96574,-2.63428 -2.36995,-4.69551 -4.19656,-6.13834 -1.79884,-1.44272 -4.18723,-2.26147 -7.13211,-2.49389 0,0 0,0 0,0 m 117.1993,9.24715 c -2.72109,-0.21463 -5.02556,0.214 -6.90774,1.3274 -1.85416,1.11638 -3.38562,2.92696 -4.59747,5.38602 -1.14275,2.30182 -2.02746,5.34286 -2.65145,9.12851 -0.59407,3.78228 -1.0426,7.95127 -1.33412,12.47852 -0.31961,4.96313 -0.40861,9.09929 -0.30502,12.44831 0.10338,3.34343 0.59069,6.36539 1.45901,9.04991 0.79062,2.5169 1.99033,4.47731 3.62985,5.87228 1.66548,1.39447 3.9331,2.16037 6.79405,2.3353 2.68468,0.16416 4.95239,-0.28964 6.80265,-1.40033 1.84923,-1.11009 3.35323,-2.89067 4.4927,-5.30161 1.17281,-2.473 2.04998,-5.38527 2.63186,-8.78387 0.61325,-3.43262 1.08361,-7.57528 1.42587,-12.43305 0.33847,-4.80501 0.45464,-8.99837 0.33315,-12.57987 -0.0932,-3.58577 -0.58737,-6.67364 -1.44552,-9.23969 -0.83323,-2.53623 -2.06055,-4.51666 -3.72947,-5.90247 -1.64289,-1.3857 -3.85299,-2.16868 -6.59835,-2.38536 0,0 0,0 0,0 m 109.38654,8.63071 c -2.54263,-0.20055 -4.71151,0.21841 -6.50239,1.29688 -1.76472,1.08124 -3.24503,2.83138 -4.4427,5.20632 -1.12898,2.2231 -2.03532,5.15882 -2.71667,8.81241 -0.65329,3.65045 -1.18027,7.67389 -1.56945,12.04294 -0.42669,4.79003 -0.64513,8.7799 -0.63408,12.01192 0.011,3.2268 0.3898,6.14273 1.13414,8.73236 0.67592,2.42813 1.77807,4.32017 3.27794,5.6638 1.52432,1.34316 3.62887,2.07842 6.30449,2.242 2.51094,0.15355 4.64712,-0.28883 6.40905,-1.3647 1.76096,-1.07532 3.18716,-2.79917 4.31633,-5.1292 1.16197,-2.38998 2.05811,-5.20342 2.68992,-8.48573 0.66207,-3.31504 1.20829,-7.31508 1.65268,-12.00487 0.43946,-4.6385 0.65507,-8.68589 0.63243,-12.14203 0.004,-3.46011 -0.35171,-6.43649 -1.09019,-8.9105 -0.71588,-2.44517 -1.84373,-4.35527 -3.37158,-5.68834 -1.50338,-1.33295 -3.52443,-2.08078 -6.08992,-2.28326 0,0 0,0 0,0 m -291.65712,96.12303 c 8.38054,0.37307 14.3841,3.73397 18.00515,10.06767 3.6347,6.27155 5.24092,15.57772 4.83558,27.84817 -0.41558,12.57709 -2.64894,21.70941 -6.6884,27.46032 -4.00607,5.71791 -10.05958,8.47331 -18.182,8.2846 -8.28468,-0.19247 -14.294,-3.31708 -18.01745,-9.37673 -3.71075,-6.08904 -5.41618,-15.35942 -5.14037,-27.89366 0.2795,-12.70299 2.45224,-22.0557 6.54569,-27.98645 4.09629,-5.96598 10.31493,-8.77448 18.6418,-8.40392 0,0 0,0 0,0 m 60.25304,2.68184 c 8.09188,0.36023 13.84615,3.65646 17.25739,9.87439 3.42558,6.1574 4.84904,15.29747 4.28742,27.3516 -0.57581,12.35657 -2.86098,21.33041 -6.84504,26.98286 -3.95139,5.62008 -9.84041,8.32992 -17.68763,8.14761 -8.00332,-0.18593 -13.76636,-3.25352 -17.27918,-9.20523 -3.49982,-5.98008 -5.0174,-15.08555 -4.57506,-27.39695 0.44824,-12.47587 2.67824,-21.66187 6.71554,-27.48854 4.04051,-5.86119 10.08719,-8.62351 18.12656,-8.26574 0,0 0,0 0,0 m 168.80662,7.51353 c 7.31004,0.32542 12.39301,3.44171 15.2438,9.33627 2.86679,5.83852 3.80678,14.51404 2.83732,25.96265 -0.99414,11.73906 -3.40795,20.2688 -7.23413,25.64516 -3.79544,5.34566 -9.23441,7.92744 -16.33499,7.76248 -7.2402,-0.16821 -12.3393,-3.07651 -15.28895,-8.72628 -2.93608,-5.67538 -3.98613,-14.32042 -3.10943,-26.00849 0.88815,-11.84088 3.29007,-20.55949 7.16724,-26.09469 3.88131,-5.56783 9.45822,-8.20022 16.71914,-7.8771 0,0 0,0 0,0 m 52.60866,2.34159 c 7.07448,0.31494 11.92836,3.37427 14.61284,9.16842 2.7009,5.73949 3.4989,14.27054 2.41147,25.53069 -1.11522,11.54682 -3.53646,19.93897 -7.31264,25.2292 -3.746,5.26005 -9.04797,7.80178 -15.92324,7.64206 -7.00994,-0.16286 -11.91,-3.02168 -14.69226,-8.57749 -2.76859,-5.58058 -3.67176,-14.08204 -2.66933,-25.57608 1.01541,-11.6433 3.42681,-20.21799 7.25325,-25.66247 3.83084,-5.4765 9.29349,-8.06702 16.31991,-7.75433 0,0 0,0 0,0 m 50.92497,2.26665 c 6.85012,0.30496 11.51401,3.31054 14.04113,9.00758 2.54391,5.64368 3.20833,14.03493 2.01073,25.11263 -1.22829,11.36067 -3.70892,19.61805 -7.43632,24.8249 -3.69781,5.17718 -8.84179,7.68074 -15.50228,7.52601 -6.79052,-0.15776 -11.52872,-2.96939 -14.15272,-8.43437 -2.61024,-5.48895 -3.34786,-13.85075 -2.22814,-25.1571 1.13417,-11.45219 3.58082,-19.88655 7.35773,-25.24316 3.78157,-5.38808 9.10676,-7.93923 15.90987,-7.63649 0,0 0,0 0,0 M 516.10601,608.3418 c 0,0 6.80305,0.30042 6.80305,0.30042 0,0 -3.43899,61.562 -3.43899,61.562 0,0 13.04319,0.33524 13.04319,0.33524 0,0 -0.40148,6.81842 -0.40148,6.81842 0,0 -34.80336,-0.82318 -34.80336,-0.82318 0,0 0.35016,-6.89108 0.35016,-6.89108 0,0 13.49163,0.34676 13.49163,0.34676 0,0 2.46714,-45.74183 2.46714,-45.74183 0,0 -13.62485,-0.53653 -13.62485,-0.53653 0,0 0.32188,-6.33477 0.32188,-6.33477 1.85495,0.0766 3.86457,0.0284 5.99577,-0.19464 2.13043,-0.25367 3.75507,-0.6743 4.87183,-1.24933 1.38802,-0.71868 2.4926,-1.64875 3.31666,-2.79508 0.85501,-1.17609 1.38073,-2.78237 1.60737,-4.7964 0,0 0,0 0,0 m 56.26249,2.48454 c 0,0 6.57647,0.29042 6.57647,0.29042 0,0 -4.15547,60.50929 -4.15547,60.50929 0,0 12.61598,0.32427 12.61598,0.32427 0,0 -0.47998,6.70402 -0.47998,6.70402 0,0 -33.66155,-0.79617 -33.66155,-0.79617 0,0 0.43212,-6.77427 0.43212,-6.77427 0,0 13.04694,0.33534 13.04694,0.33534 0,0 3.00385,-44.96043 3.00385,-44.96043 0,0 -13.17115,-0.51865 -13.17115,-0.51865 0,0 0.39709,-6.22487 0.39709,-6.22487 1.79299,0.074 3.73726,0.0254 5.80157,-0.19522 2.06399,-0.25067 3.64106,-0.66507 4.729,-1.23086 1.35225,-0.70712 2.43321,-1.62178 3.24574,-2.74876 0.84286,-1.15623 1.37303,-2.73496 1.61939,-4.71411 0,0 0,0 0,0 m -173.67636,-0.90349 c -2.94397,-0.1242 -5.37701,0.41327 -7.35636,1.58546 -1.94905,1.17426 -3.55151,2.996 -4.74715,5.48771 -1.12822,2.33265 -1.91107,5.39498 -2.41269,9.18956 -0.46947,3.79013 -0.76446,7.96071 -0.8739,12.48304 -0.12,4.95746 -0.0622,9.08174 0.20112,12.41602 0.26283,3.32857 0.92503,6.32388 1.98276,8.97007 0.96632,2.48166 2.38174,4.39593 4.21239,5.73113 1.85855,1.3338 4.30465,2.02031 7.39669,2.09904 2.90142,0.0739 5.32536,-0.45398 7.26963,-1.62233 1.94315,-1.1677 3.48394,-2.99189 4.60338,-5.43195 1.15258,-2.50305 1.96673,-5.43393 2.44063,-8.83967 0.50625,-3.44076 0.82646,-7.58444 0.97636,-12.43668 0.14821,-4.79978 0.0844,-8.98288 -0.20809,-12.54843 -0.26213,-3.57094 -0.90104,-6.63115 -1.94191,-9.16059 -1.0127,-2.50064 -2.45946,-4.40323 -4.3214,-5.72962 -1.83394,-1.32716 -4.25141,-2.06737 -7.22155,-2.19279 0,0 0,0 0,0 m 60.14947,2.53872 c -2.84256,-0.11991 -5.23309,0.40822 -7.16174,1.56072 -1.89941,1.15451 -3.4405,2.94593 -4.63041,5.3937 -1.12256,2.29153 -1.95415,5.29822 -2.49176,9.02523 -0.50655,3.7227 -0.81748,7.82022 -0.9865,12.26206 -0.18531,4.86941 -0.18719,8.92051 0.0206,12.19563 0.20735,3.26961 0.80528,6.21173 1.79026,8.81079 0.89898,2.43754 2.20779,4.31671 3.9581,5.62769 1.77735,1.30963 4.16352,1.9839 7.15044,2.05996 2.80289,0.0714 5.15275,-0.44829 7.04802,-1.59706 1.89419,-1.14813 3.40865,-2.94112 4.52446,-5.33901 1.14871,-2.45978 1.97625,-5.33971 2.48159,-8.68592 0.53703,-3.38059 0.90402,-7.45154 1.11626,-12.21833 0.20984,-4.71506 0.20622,-8.82407 -0.0269,-12.32622 -0.20376,-3.50734 -0.77867,-6.51269 -1.74935,-8.99638 -0.94383,-2.45535 -2.31536,-4.32297 -4.09603,-5.62435 -1.75354,-1.30213 -4.07902,-2.02739 -6.94696,-2.1485 0,0 0,0 0,0 m 168.53669,7.1134 c -2.56798,-0.10833 -4.75161,0.39735 -6.54122,1.49453 -1.76318,1.099 -3.22664,2.80161 -4.39766,5.12637 -1.10407,2.17643 -1.97248,5.03106 -2.60275,8.56892 -0.60202,3.53398 -1.0708,7.42266 -1.39521,11.6394 -0.35568,4.62313 -0.51378,8.46951 -0.45222,11.5791 0.0614,3.10462 0.48905,5.89796 1.28033,8.36523 0.71972,2.31416 1.8611,4.09837 3.39516,5.34164 1.55871,1.24207 3.69332,1.8799 6.39516,1.94869 2.53558,0.0646 4.68378,-0.43193 6.44453,-1.52569 1.75978,-1.09319 3.17167,-2.79943 4.27443,-5.07916 1.13489,-2.33851 1.99493,-5.0757 2.58098,-8.25529 0.61602,-3.21207 1.13319,-7.07847 1.5081,-11.60604 0.37071,-4.47796 0.49602,-8.3807 0.41904,-11.70549 -0.0502,-3.32946 -0.45564,-6.18144 -1.23939,-8.5373 -0.76047,-2.32882 -1.93061,-4.09882 -3.49275,-5.33054 -1.53744,-1.2324 -3.58544,-1.91496 -6.17653,-2.02437 0,0 0,0 0,0 m 52.53062,2.21715 c -2.48523,-0.10483 -4.60627,0.39378 -6.35348,1.47366 -1.72161,1.08166 -3.16092,2.75661 -4.32519,5.04306 -1.09752,2.14059 -1.97574,4.94789 -2.63234,8.4269 -0.6292,3.47525 -1.13407,7.2993 -1.50343,11.44598 -0.40501,4.54645 -0.6085,8.32911 -0.58964,11.38716 0.0188,3.05326 0.39628,5.80029 1.13021,8.22652 0.66669,2.27576 1.74864,4.03016 3.218,5.2524 1.49329,1.22106 3.55228,1.84758 6.1681,1.91418 2.45494,0.0625 4.54206,-0.42671 6.26171,-1.50328 1.71873,-1.07601 3.10852,-2.75493 4.2063,-4.99782 1.1297,-2.3007 1.99836,-4.99339 2.60736,-8.12105 0.63845,-3.15956 1.16182,-6.96345 1.58378,-11.41657 0.41726,-4.40418 0.61726,-8.24137 0.58593,-11.51094 -0.005,-3.2741 -0.36092,-6.07837 -1.08933,-8.39448 -0.7062,-2.28947 -1.81638,-4.02915 -3.31315,-5.23928 -1.47281,-1.21076 -3.44715,-1.88054 -5.95483,-1.98644 0,0 0,0 0,0 m 50.85219,2.14631 c -2.40644,-0.10151 -4.46772,0.39022 -6.1743,1.45336 -1.68179,1.06486 -3.12518,2.71189 -4.28254,4.96131 -1.09083,2.10592 -1.95032,4.86852 -2.63126,8.29059 -0.65436,3.41845 -1.19276,7.17998 -1.60409,11.25888 -0.45101,4.4723 -0.69697,8.19329 -0.71814,11.20149 -0.0212,3.00356 0.30912,5.70578 0.98892,8.09234 0.6166,2.23861 1.64229,3.96417 3.05026,5.16606 1.43119,1.20076 3.41821,1.81638 5.95209,1.8809 2.37807,0.0606 4.37987,-0.4223 6.06016,-1.48223 1.67938,-1.0594 3.07468,-2.71113 4.16728,-4.91835 1.12426,-2.26408 2.00056,-4.9137 2.63079,-7.9911 0.65916,-3.10874 1.21506,-6.85125 1.68097,-11.23227 0.46071,-4.33275 0.70361,-8.10749 0.7151,-11.32367 0.0368,-3.22054 -0.27192,-5.97867 -0.94809,-8.25636 -0.65495,-2.25142 -1.70838,-3.9618 -3.14313,-5.15106 -1.41148,-1.18987 -3.31581,-1.84734 -5.74402,-1.94989 0,0 0,0 0,0"
       id="rect3777"
       inkscape:connector-curvature="0" />
    <path
       style="font-size:medium;font-style:normal;font-variant:normal;font-weight:normal;font-stretch:normal;text-indent:0;text-align:start;text-decoration:none;line-height:normal;letter-spacing:normal;word-spacing:normal;text-transform:none;direction:ltr;block-progression:tb;writing-mode:lr-tb;text-anchor:start;baseline-shift:baseline;color:#000000;fill:#ffffff;fill-opacity:1;stroke:none;stroke-width:40;marker:none;visibility:visible;display:inline;overflow:visible;enable-background:accumulate;font-family:Sans;-inkscape-font-specification:Sans"
       d="m 271.37807,208.09256 c -20.63447,-1.8652 -41.26893,-3.7304 -61.9034,-5.5956 -40.38094,-5.97596 -72.85339,35.79155 -64.05423,73.90321 18.60222,182.03679 36.35059,364.18354 55.48689,546.15153 7.01701,35.04658 46.21451,51.6996 78.75194,44.29289 143.53783,-14.14294 287.15883,-27.61808 430.6447,-42.17829 30.46266,-6.18968 45.15436,-38.70603 42.52087,-67.36009 0.49824,-18.71572 1.0075,-37.43136 1.52418,-56.14696 m -72.97599,-41.23664 c -0.37488,18.04967 42.09623,42.22019 41.72135,60.26985 -0.37488,18.04967 -0.74976,36.09934 -1.12464,54.14901 -1.88219,23.35964 -28.46797,17.63825 -44.77054,20.49007 -139.23875,11.81354 -278.43541,24.62046 -417.70052,35.81218 -22.44685,-2.46018 -17.73948,-28.4042 -20.34028,-44.49731 -15.5599,-170.61675 -31.11981,-341.2335 -46.67971,-511.85025 -1.97961,-12.43872 8.38985,-24.38239 21.24632,-22.59816 20.88075,1.60199 41.76149,3.20398 62.64224,4.80597"
       id="rect3791"
       inkscape:connector-curvature="0"
       sodipodi:nodetypes="cccccccccsccccccc" />
    <path
       style="fill:#000000;fill-opacity:1;stroke:none"
       d="m 1193.5666,522.90827 657.9919,-177.50478 45.9064,630.44808 -563.1186,76.51063 z"
       id="rect3958"
       inkscape:connector-curvature="0"
       sodipodi:nodetypes="ccccc" />
    <path
       inkscape:connector-curvature="0"
       id="path4085"
       d="m -821.39126,345.23543 c -22.16,0 -40,17.84 -40,40 l 0,500 c 0,22.16 17.84,40 40,40 l 500.00001,0 c 22.16001,0 39.99999,-17.84 39.99999,-40 l 0,-500 c 0,-22.16 -17.83999,-40 -39.99999,-40 l -500.00001,0 z m 78.4375,76.9375 c 7.83476,7e-5 13.56039,2.96608 17.15625,8.90625 3.62501,5.90951 5.43745,14.83974 5.4375,26.8125 -5e-5,12.34217 -1.84777,21.43242 -5.53125,27.21875 -3.65433,5.75557 -9.34468,8.625 -17.0625,8.625 -7.83483,0 -13.56246,-2.93335 -17.1875,-8.78125 -3.59583,-5.84788 -5.37501,-14.84203 -5.375,-26.96875 -10e-6,-12.21898 1.81445,-21.21407 5.46875,-27.03125 3.65428,-5.84783 9.34663,-8.78118 17.09375,-8.78125 z m 114.375,0 c 7.83477,7e-5 13.56038,2.96608 17.15625,8.90625 3.62501,5.90951 5.43745,14.83974 5.4375,26.8125 -5e-5,12.34217 -1.84777,21.43242 -5.53125,27.21875 -3.65433,5.75557 -9.34467,8.625 -17.0625,8.625 -7.83482,0 -13.56246,-2.93335 -17.1875,-8.78125 -3.59584,-5.84788 -5.40626,-14.84203 -5.40625,-26.96875 -10e-6,-12.21898 1.8457,-21.21407 5.5,-27.03125 3.65428,-5.84783 9.34663,-8.78118 17.09375,-8.78125 z m 114.375,0 c 7.83476,7e-5 13.56038,2.96608 17.15625,8.90625 3.625,5.90951 5.43745,14.83974 5.4375,26.8125 -5e-5,12.34217 -1.84777,21.43242 -5.53125,27.21875 -3.65433,5.75557 -9.34467,8.625 -17.0625,8.625 -7.83482,0 -13.56245,-2.93335 -17.1875,-8.78125 -3.59583,-5.84788 -5.40626,-14.84203 -5.40625,-26.96875 -10e-6,-12.21898 1.84571,-21.21407 5.5,-27.03125 3.65428,-5.84783 9.34663,-8.78118 17.09375,-8.78125 z m 57.18751,0 c 7.83477,7e-5 13.52913,2.96608 17.125,8.90625 3.62501,5.90951 5.43745,14.83974 5.4375,26.8125 -5e-5,12.34217 -1.81652,21.43242 -5.5,27.21875 -3.65433,5.75557 -9.34467,8.625 -17.0625,8.625 -7.83482,0 -13.56246,-2.93335 -17.1875,-8.78125 -3.59584,-5.84788 -5.40626,-14.84203 -5.40625,-26.96875 -10e-6,-12.21898 1.81445,-21.21407 5.46875,-27.03125 3.65428,-5.84783 9.37788,-8.78118 17.125,-8.78125 z m 57.1875,0 c 7.83476,7e-5 13.52913,2.96608 17.125,8.90625 3.62501,5.90951 5.43745,14.83974 5.4375,26.8125 -5e-5,12.34217 -1.84778,21.43242 -5.53125,27.21875 -3.65433,5.75557 -9.31343,8.625 -17.03125,8.625 -7.83482,0 -13.59371,-2.93335 -17.21875,-8.78125 -3.59583,-5.84788 -5.375,-14.84203 -5.375,-26.96875 0,-12.21898 1.81445,-21.21407 5.46875,-27.03125 3.65428,-5.84783 9.37788,-8.78118 17.125,-8.78125 z m -287.12501,1.15625 6.8125,0 0,61.96875 13.34375,0 0,7 -35.34375,0 0,-7 13.59375,0 0,-46.09375 -13.59375,0 0,-6.28125 c 1.84175,6e-5 3.80137,-0.1609 5.90625,-0.46875 2.10485,-0.3385 3.69957,-0.79062 4.78125,-1.40625 1.34476,-0.7694 2.39613,-1.73661 3.15625,-2.90625 0.7893,-1.2003 1.22679,-2.81183 1.34375,-4.8125 z m 114.375,0 6.8125,0 0,61.96875 13.3125,0 0,7 -35.34375,0 0,-7 13.59375,0 0,-46.09375 -13.59375,0 0,-6.28125 c 1.84176,6e-5 3.83261,-0.1609 5.9375,-0.46875 2.10485,-0.3385 3.69956,-0.79062 4.78125,-1.40625 1.34476,-0.7694 2.39613,-1.73661 3.15625,-2.90625 0.7893,-1.2003 1.22679,-2.81183 1.34375,-4.8125 z m -170.375,6.46875 c -2.74806,6e-5 -4.99999,0.58095 -6.8125,1.78125 -1.78331,1.20042 -3.22884,3.03731 -4.28125,5.46875 -0.99399,2.27766 -1.65122,5.24367 -2.03125,8.90625 -0.35083,3.66268 -0.53127,7.66076 -0.53125,12.03125 -2e-5,4.80147 0.14716,8.83078 0.46875,12.0625 0.32157,3.23175 1.01004,6.13291 2.0625,8.6875 0.96471,2.40073 2.33968,4.23809 4.09375,5.5 1.78328,1.26192 4.10779,1.87501 7.03125,1.875 2.74799,10e-6 5.03119,-0.61213 6.84375,-1.8125 1.81249,-1.20035 3.22475,-3.006 4.21875,-5.4375 1.02316,-2.49304 1.71165,-5.42638 2.0625,-8.78125 0.38001,-3.3856 0.56246,-7.44759 0.5625,-12.1875 -4e-5,-4.67828 -0.18249,-8.74027 -0.5625,-12.1875 -0.35085,-3.44713 -1.04135,-6.34923 -2.09375,-8.75 -1.02324,-2.36988 -2.43549,-4.17458 -4.21875,-5.375 -1.75409,-1.2003 -4.03527,-1.78119 -6.8125,-1.78125 z m 114.375,0 c -2.74805,6e-5 -5.03125,0.58095 -6.84375,1.78125 -1.78332,1.20042 -3.19759,3.03731 -4.25,5.46875 -0.99399,2.27766 -1.68247,5.24367 -2.0625,8.90625 -0.35082,3.66268 -0.53127,7.66076 -0.53125,12.03125 -2e-5,4.80147 0.17841,8.83078 0.5,12.0625 0.32157,3.23175 1.01005,6.13291 2.0625,8.6875 0.96472,2.40073 2.30842,4.23809 4.0625,5.5 1.78328,1.26192 4.13904,1.87501 7.0625,1.875 2.748,10e-6 5.03119,-0.61213 6.84375,-1.8125 1.81249,-1.20035 3.22475,-3.006 4.21875,-5.4375 1.02316,-2.49304 1.71165,-5.42638 2.0625,-8.78125 0.38001,-3.3856 0.56246,-7.44759 0.5625,-12.1875 -4e-5,-4.67828 -0.18249,-8.74027 -0.5625,-12.1875 -0.35085,-3.44713 -1.07261,-6.34923 -2.125,-8.75 -1.02324,-2.36988 -2.40425,-4.17458 -4.1875,-5.375 -1.7541,-1.2003 -4.03527,-1.78119 -6.8125,-1.78125 z m 114.375,0 c -2.74805,6e-5 -5.03125,0.58095 -6.84375,1.78125 -1.78332,1.20042 -3.19758,3.03731 -4.25,5.46875 -0.99398,2.27766 -1.68247,5.24367 -2.0625,8.90625 -0.35082,3.66268 -0.53126,7.66076 -0.53125,12.03125 -10e-6,4.80147 0.14716,8.83078 0.46875,12.0625 0.32156,3.23175 1.01005,6.13291 2.0625,8.6875 0.96471,2.40073 2.33967,4.23809 4.09375,5.5 1.78327,1.26192 4.13904,1.87501 7.0625,1.875 2.748,10e-6 5.03119,-0.61213 6.84375,-1.8125 1.81249,-1.20035 3.19349,-3.006 4.1875,-5.4375 1.02316,-2.49304 1.71164,-5.42638 2.0625,-8.78125 0.38001,-3.3856 0.5937,-7.44759 0.59375,-12.1875 -5e-5,-4.67828 -0.21374,-8.74027 -0.59375,-12.1875 -0.35086,-3.44713 -1.04136,-6.34923 -2.09375,-8.75 -1.02324,-2.36988 -2.43549,-4.17458 -4.21875,-5.375 -1.75409,-1.2003 -4.00402,-1.78119 -6.78125,-1.78125 z m 57.18751,0 c -2.74805,6e-5 -5.03125,0.58095 -6.84375,1.78125 -1.78332,1.20042 -3.19759,3.03731 -4.25,5.46875 -0.99399,2.27766 -1.68247,5.24367 -2.0625,8.90625 -0.35082,3.66268 -0.53127,7.66076 -0.53125,12.03125 -2e-5,4.80147 0.14716,8.83078 0.46875,12.0625 0.32157,3.23175 1.01005,6.13291 2.0625,8.6875 0.96472,2.40073 2.33968,4.23809 4.09375,5.5 1.78328,1.26192 4.13905,1.87501 7.0625,1.875 2.748,10e-6 5.03119,-0.61213 6.84375,-1.8125 1.81249,-1.20035 3.1935,-3.006 4.1875,-5.4375 1.02316,-2.49304 1.71165,-5.42638 2.0625,-8.78125 0.38001,-3.3856 0.56246,-7.44759 0.5625,-12.1875 -4e-5,-4.67828 -0.18249,-8.74027 -0.5625,-12.1875 -0.35085,-3.44713 -1.04136,-6.34923 -2.09375,-8.75 -1.02324,-2.36988 -2.4355,-4.17458 -4.21875,-5.375 -1.7541,-1.2003 -4.00402,-1.78119 -6.78125,-1.78125 z m 57.1875,0 c -2.74806,6e-5 -5.03124,0.58095 -6.84375,1.78125 -1.78331,1.20042 -3.22883,3.03731 -4.28125,5.46875 -0.99399,2.27766 -1.65122,5.24367 -2.03125,8.90625 -0.35083,3.66268 -0.53126,7.66076 -0.53125,12.03125 -10e-6,4.80147 0.14715,8.83078 0.46875,12.0625 0.32156,3.23175 1.01005,6.13291 2.0625,8.6875 0.96472,2.40073 2.33967,4.23809 4.09375,5.5 1.78327,1.26192 4.13904,1.87501 7.0625,1.875 2.74799,10e-6 4.99994,-0.61213 6.8125,-1.8125 1.81249,-1.20035 3.22475,-3.006 4.21875,-5.4375 1.02317,-2.49304 1.71164,-5.42638 2.0625,-8.78125 0.38,-3.3856 0.56246,-7.44759 0.5625,-12.1875 -4e-5,-4.67828 -0.1825,-8.74027 -0.5625,-12.1875 -0.35086,-3.44713 -1.04135,-6.34923 -2.09375,-8.75 -1.02324,-2.36988 -2.4355,-4.17458 -4.21875,-5.375 -1.7541,-1.2003 -4.00403,-1.78119 -6.78125,-1.78125 z m -343.12501,110.5625 c 7.83476,6e-5 13.56039,2.96608 17.15625,8.90625 3.62501,5.90951 5.43745,14.83975 5.4375,26.8125 -5e-5,12.34217 -1.84777,21.43242 -5.53125,27.21875 -3.65433,5.75557 -9.34468,8.625 -17.0625,8.625 -7.83483,0 -13.56246,-2.93335 -17.1875,-8.78125 -3.59583,-5.84789 -5.37501,-14.84203 -5.375,-26.96875 -10e-6,-12.21899 1.81445,-21.21408 5.46875,-27.03125 3.65428,-5.84784 9.34663,-8.78119 17.09375,-8.78125 z m 114.375,0 c 7.83477,6e-5 13.56038,2.96608 17.15625,8.90625 3.62501,5.90951 5.43745,14.83975 5.4375,26.8125 -5e-5,12.34217 -1.84777,21.43242 -5.53125,27.21875 -3.65433,5.75557 -9.34467,8.625 -17.0625,8.625 -7.83482,0 -13.56246,-2.93335 -17.1875,-8.78125 -3.59584,-5.84789 -5.40626,-14.84203 -5.40625,-26.96875 -10e-6,-12.21899 1.8457,-21.21408 5.5,-27.03125 3.65428,-5.84784 9.34663,-8.78119 17.09375,-8.78125 z m 57.1875,0 c 7.83476,6e-5 13.56038,2.96608 17.15625,8.90625 3.62501,5.90951 5.43745,14.83975 5.4375,26.8125 -5e-5,12.34217 -1.84778,21.43242 -5.53125,27.21875 -3.65433,5.75557 -9.34468,8.625 -17.0625,8.625 -7.83482,0 -13.56246,-2.93335 -17.1875,-8.78125 -3.59583,-5.84789 -5.40625,-14.84203 -5.40625,-26.96875 0,-12.21899 1.8457,-21.21408 5.5,-27.03125 3.65428,-5.84784 9.34663,-8.78119 17.09375,-8.78125 z m 114.37501,0 c 7.83477,6e-5 13.52913,2.96608 17.125,8.90625 3.62501,5.90951 5.43745,14.83975 5.4375,26.8125 -5e-5,12.34217 -1.81652,21.43242 -5.5,27.21875 -3.65433,5.75557 -9.34467,8.625 -17.0625,8.625 -7.83482,0 -13.56246,-2.93335 -17.1875,-8.78125 -3.59584,-5.84789 -5.40626,-14.84203 -5.40625,-26.96875 -10e-6,-12.21899 1.81445,-21.21408 5.46875,-27.03125 3.65428,-5.84784 9.37788,-8.78119 17.125,-8.78125 z m 57.1875,0 c 7.83476,6e-5 13.52913,2.96608 17.125,8.90625 3.62501,5.90951 5.43745,14.83975 5.4375,26.8125 -5e-5,12.34217 -1.84778,21.43242 -5.53125,27.21875 -3.65433,5.75557 -9.31343,8.625 -17.03125,8.625 -7.83482,0 -13.59371,-2.93335 -17.21875,-8.78125 -3.59583,-5.84789 -5.375,-14.84203 -5.375,-26.96875 0,-12.21899 1.81445,-21.21408 5.46875,-27.03125 3.65428,-5.84784 9.37788,-8.78119 17.125,-8.78125 z m -287.12501,1.15625 6.8125,0 0,61.96875 13.34375,0 0,7 -35.34375,0 0,-7 13.59375,0 0,-46.09375 -13.59375,0 0,-6.28125 c 1.84175,5e-5 3.80137,-0.16091 5.90625,-0.46875 2.10485,-0.3385 3.69957,-0.79062 4.78125,-1.40625 1.34476,-0.76939 2.39613,-1.73661 3.15625,-2.90625 0.7893,-1.20029 1.22679,-2.81184 1.34375,-4.8125 z m 171.5625,0 6.78125,0 0,61.96875 13.34375,0 0,7 -35.34375,0 0,-7 13.59375,0 0,-46.09375 -13.59375,0 0,-6.28125 c 1.84175,5e-5 3.80137,-0.16091 5.90625,-0.46875 2.10485,-0.3385 3.69957,-0.79062 4.78125,-1.40625 1.34476,-0.76939 2.39613,-1.73661 3.15625,-2.90625 0.78931,-1.20029 1.25804,-2.81184 1.375,-4.8125 z m -227.5625,6.46875 c -2.74806,6e-5 -4.99999,0.58095 -6.8125,1.78125 -1.78331,1.20041 -3.22884,3.03731 -4.28125,5.46875 -0.99399,2.27766 -1.65122,5.24368 -2.03125,8.90625 -0.35083,3.66268 -0.53127,7.66075 -0.53125,12.03125 -2e-5,4.80146 0.14716,8.83079 0.46875,12.0625 0.32157,3.23175 1.01004,6.13291 2.0625,8.6875 0.96471,2.40073 2.33968,4.2381 4.09375,5.5 1.78328,1.26192 4.10779,1.875 7.03125,1.875 2.74799,0 5.03119,-0.58089 6.84375,-1.78125 1.81249,-1.20035 3.22475,-3.03725 4.21875,-5.46875 1.02316,-2.49304 1.71165,-5.39513 2.0625,-8.75 0.38001,-3.3856 0.56246,-7.47884 0.5625,-12.21875 -4e-5,-4.67828 -0.18249,-8.74027 -0.5625,-12.1875 -0.35085,-3.44713 -1.04135,-6.34923 -2.09375,-8.75 -1.02324,-2.36988 -2.43549,-4.17459 -4.21875,-5.375 -1.75409,-1.2003 -4.03527,-1.78119 -6.8125,-1.78125 z m 114.375,0 c -2.74805,6e-5 -5.03125,0.58095 -6.84375,1.78125 -1.78332,1.20041 -3.19759,3.03731 -4.25,5.46875 -0.99399,2.27766 -1.68247,5.24368 -2.0625,8.90625 -0.35082,3.66268 -0.53127,7.66075 -0.53125,12.03125 -2e-5,4.80146 0.17841,8.83079 0.5,12.0625 0.32157,3.23175 1.01005,6.13291 2.0625,8.6875 0.96472,2.40073 2.30842,4.2381 4.0625,5.5 1.78328,1.26192 4.13904,1.875 7.0625,1.875 2.748,0 5.03119,-0.58089 6.84375,-1.78125 1.81249,-1.20035 3.22475,-3.03725 4.21875,-5.46875 1.02316,-2.49304 1.71165,-5.39513 2.0625,-8.75 0.38001,-3.3856 0.56246,-7.47884 0.5625,-12.21875 -4e-5,-4.67828 -0.18249,-8.74027 -0.5625,-12.1875 -0.35085,-3.44713 -1.07261,-6.34923 -2.125,-8.75 -1.02324,-2.36988 -2.40425,-4.17459 -4.1875,-5.375 -1.7541,-1.2003 -4.03527,-1.78119 -6.8125,-1.78125 z m 57.1875,0 c -2.74806,6e-5 -5.03124,0.58095 -6.84375,1.78125 -1.78331,1.20041 -3.19758,3.03731 -4.25,5.46875 -0.99399,2.27766 -1.68247,5.24368 -2.0625,8.90625 -0.35083,3.66268 -0.53126,7.66075 -0.53125,12.03125 -10e-6,4.80146 0.1784,8.83079 0.5,12.0625 0.32156,3.23175 1.01005,6.13291 2.0625,8.6875 0.96472,2.40073 2.30842,4.2381 4.0625,5.5 1.78327,1.26192 4.13904,1.875 7.0625,1.875 2.74799,0 5.03119,-0.58089 6.84375,-1.78125 1.81249,-1.20035 3.22475,-3.03725 4.21875,-5.46875 1.02317,-2.49304 1.71164,-5.39513 2.0625,-8.75 0.38,-3.3856 0.56246,-7.47884 0.5625,-12.21875 -4e-5,-4.67828 -0.1825,-8.74027 -0.5625,-12.1875 -0.35086,-3.44713 -1.0726,-6.34923 -2.125,-8.75 -1.02324,-2.36988 -2.40425,-4.17459 -4.1875,-5.375 -1.7541,-1.2003 -4.03528,-1.78119 -6.8125,-1.78125 z m 114.37501,0 c -2.74805,6e-5 -5.03125,0.58095 -6.84375,1.78125 -1.78332,1.20041 -3.19759,3.03731 -4.25,5.46875 -0.99399,2.27766 -1.68247,5.24368 -2.0625,8.90625 -0.35082,3.66268 -0.53127,7.66075 -0.53125,12.03125 -2e-5,4.80146 0.14716,8.83079 0.46875,12.0625 0.32157,3.23175 1.01005,6.13291 2.0625,8.6875 0.96472,2.40073 2.33968,4.2381 4.09375,5.5 1.78328,1.26192 4.13905,1.875 7.0625,1.875 2.748,0 5.03119,-0.58089 6.84375,-1.78125 1.81249,-1.20035 3.1935,-3.03725 4.1875,-5.46875 1.02316,-2.49304 1.71165,-5.39513 2.0625,-8.75 0.38001,-3.3856 0.56246,-7.47884 0.5625,-12.21875 -4e-5,-4.67828 -0.18249,-8.74027 -0.5625,-12.1875 -0.35085,-3.44713 -1.04136,-6.34923 -2.09375,-8.75 -1.02324,-2.36988 -2.4355,-4.17459 -4.21875,-5.375 -1.7541,-1.2003 -4.00402,-1.78119 -6.78125,-1.78125 z m 57.1875,0 c -2.74806,6e-5 -5.03124,0.58095 -6.84375,1.78125 -1.78331,1.20041 -3.22883,3.03731 -4.28125,5.46875 -0.99399,2.27766 -1.65122,5.24368 -2.03125,8.90625 -0.35083,3.66268 -0.53126,7.66075 -0.53125,12.03125 -10e-6,4.80146 0.14715,8.83079 0.46875,12.0625 0.32156,3.23175 1.01005,6.13291 2.0625,8.6875 0.96472,2.40073 2.33967,4.2381 4.09375,5.5 1.78327,1.26192 4.13904,1.875 7.0625,1.875 2.74799,0 4.99994,-0.58089 6.8125,-1.78125 1.81249,-1.20035 3.22475,-3.03725 4.21875,-5.46875 1.02317,-2.49304 1.71164,-5.39513 2.0625,-8.75 0.38,-3.3856 0.56246,-7.47884 0.5625,-12.21875 -4e-5,-4.67828 -0.1825,-8.74027 -0.5625,-12.1875 -0.35086,-3.44713 -1.04135,-6.34923 -2.09375,-8.75 -1.02324,-2.36988 -2.4355,-4.17459 -4.21875,-5.375 -1.7541,-1.2003 -4.00403,-1.78119 -6.78125,-1.78125 z m -285.93751,110.5625 c 7.83476,7e-5 13.56038,2.96609 17.15625,8.90625 3.625,5.90951 5.43745,14.87099 5.4375,26.84375 -5e-5,12.34217 -1.84777,21.40117 -5.53125,27.1875 -3.65433,5.75557 -9.34467,8.625 -17.0625,8.625 -7.83482,0 -13.56245,-2.93335 -17.1875,-8.78125 -3.59583,-5.84789 -5.37501,-14.81078 -5.375,-26.9375 -10e-6,-12.21899 1.81445,-21.24532 5.46875,-27.0625 3.65427,-5.84783 9.34663,-8.78118 17.09375,-8.78125 z m 114.375,0 c 7.83476,7e-5 13.56038,2.96609 17.15625,8.90625 3.62501,5.90951 5.43745,14.87099 5.4375,26.84375 -5e-5,12.34217 -1.84778,21.40117 -5.53125,27.1875 -3.65433,5.75557 -9.34468,8.625 -17.0625,8.625 -7.83482,0 -13.56246,-2.93335 -17.1875,-8.78125 -3.59583,-5.84789 -5.40625,-14.81078 -5.40625,-26.9375 0,-12.21899 1.8457,-21.24532 5.5,-27.0625 3.65428,-5.84783 9.34663,-8.78118 17.09375,-8.78125 z m 114.37501,0 c 7.83477,7e-5 13.52913,2.96609 17.125,8.90625 3.62501,5.90951 5.43745,14.87099 5.4375,26.84375 -5e-5,12.34217 -1.81652,21.40117 -5.5,27.1875 -3.65433,5.75557 -9.34467,8.625 -17.0625,8.625 -7.83482,0 -13.56246,-2.93335 -17.1875,-8.78125 -3.59584,-5.84789 -5.40626,-14.81078 -5.40625,-26.9375 -10e-6,-12.21899 1.81445,-21.24532 5.46875,-27.0625 3.65428,-5.84783 9.37788,-8.78118 17.125,-8.78125 z m -287.09376,1.15625 6.78125,0 0,61.96875 13.34375,0 0,7 -35.34375,0 0,-7 13.59375,0 0,-46.09375 -13.59375,0 0,-6.28125 c 1.84174,6e-5 3.80136,-0.12966 5.90625,-0.4375 2.10485,-0.3385 3.69956,-0.82187 4.78125,-1.4375 1.34476,-0.7694 2.39613,-1.73662 3.15625,-2.90625 0.7893,-1.2003 1.25803,-2.81183 1.375,-4.8125 z m 114.34375,0 6.8125,0 0,61.96875 13.3125,0 0,7 -35.34375,0 0,-7 13.59375,0 0,-46.09375 -13.59375,0 0,-6.28125 c 1.84175,6e-5 3.83262,-0.12966 5.9375,-0.4375 2.10486,-0.3385 3.69956,-0.82187 4.78125,-1.4375 1.34476,-0.7694 2.39614,-1.73662 3.15625,-2.90625 0.78931,-1.2003 1.22679,-2.81183 1.34375,-4.8125 z m 114.375,0 6.78125,0 0,61.96875 13.34375,0 0,7 -35.34375,0 0,-7 13.59375,0 0,-46.09375 -13.59375,0 0,-6.28125 c 1.84175,6e-5 3.80137,-0.12966 5.90625,-0.4375 2.10485,-0.3385 3.69957,-0.82187 4.78125,-1.4375 1.34476,-0.7694 2.39613,-1.73662 3.15625,-2.90625 0.78931,-1.2003 1.25804,-2.81183 1.375,-4.8125 z m 114.37501,0 6.78125,0 0,61.96875 13.34375,0 0,7 -35.34375,0 0,-7 13.59375,0 0,-46.09375 -13.59375,0 0,-6.28125 c 1.84176,6e-5 3.80136,-0.12966 5.90625,-0.4375 2.10485,-0.3385 3.69956,-0.82187 4.78125,-1.4375 1.34476,-0.7694 2.39613,-1.73662 3.15625,-2.90625 0.7893,-1.2003 1.25804,-2.81183 1.375,-4.8125 z m -284.75001,6.46875 c -2.74805,6e-5 -5.03125,0.58095 -6.84375,1.78125 -1.78332,1.20041 -3.19758,3.03731 -4.25,5.46875 -0.99398,2.27765 -1.68247,5.24367 -2.0625,8.90625 -0.35082,3.66267 -0.50001,7.69201 -0.5,12.0625 -10e-6,4.80146 0.14716,8.79954 0.46875,12.03125 0.32156,3.23175 1.01005,6.13291 2.0625,8.6875 0.96471,2.40073 2.30842,4.23809 4.0625,5.5 1.78327,1.26192 4.13904,1.87501 7.0625,1.875 2.748,1e-5 5.03119,-0.58088 6.84375,-1.78125 1.81249,-1.20035 3.22474,-3.03724 4.21875,-5.46875 1.02316,-2.49303 1.71164,-5.39513 2.0625,-8.75 0.38,-3.3856 0.56245,-7.44759 0.5625,-12.1875 -5e-5,-4.67829 -0.1825,-8.74027 -0.5625,-12.1875 -0.35086,-3.44713 -1.04136,-6.38048 -2.09375,-8.78125 -1.02324,-2.36988 -2.43549,-4.17459 -4.21875,-5.375 -1.75409,-1.2003 -4.03527,-1.78119 -6.8125,-1.78125 z m 114.375,0 c -2.74806,6e-5 -5.03124,0.58095 -6.84375,1.78125 -1.78331,1.20041 -3.19758,3.03731 -4.25,5.46875 -0.99399,2.27765 -1.68247,5.24367 -2.0625,8.90625 -0.35083,3.66267 -0.53126,7.69201 -0.53125,12.0625 -10e-6,4.80146 0.1784,8.79954 0.5,12.03125 0.32156,3.23175 1.01005,6.13291 2.0625,8.6875 0.96472,2.40073 2.30842,4.23809 4.0625,5.5 1.78327,1.26192 4.13904,1.87501 7.0625,1.875 2.74799,1e-5 5.03119,-0.58088 6.84375,-1.78125 1.81249,-1.20035 3.22475,-3.03724 4.21875,-5.46875 1.02317,-2.49303 1.71164,-5.39513 2.0625,-8.75 0.38,-3.3856 0.56246,-7.44759 0.5625,-12.1875 -4e-5,-4.67829 -0.1825,-8.74027 -0.5625,-12.1875 -0.35086,-3.44713 -1.0726,-6.38048 -2.125,-8.78125 -1.02324,-2.36988 -2.40425,-4.17459 -4.1875,-5.375 -1.7541,-1.2003 -4.03528,-1.78119 -6.8125,-1.78125 z m 114.37501,0 c -2.74805,6e-5 -5.03125,0.58095 -6.84375,1.78125 -1.78332,1.20041 -3.19759,3.03731 -4.25,5.46875 -0.99399,2.27765 -1.68247,5.24367 -2.0625,8.90625 -0.35082,3.66267 -0.53127,7.69201 -0.53125,12.0625 -2e-5,4.80146 0.14716,8.79954 0.46875,12.03125 0.32157,3.23175 1.01005,6.13291 2.0625,8.6875 0.96472,2.40073 2.33968,4.23809 4.09375,5.5 1.78328,1.26192 4.13905,1.87501 7.0625,1.875 2.748,1e-5 5.03119,-0.58088 6.84375,-1.78125 1.81249,-1.20035 3.1935,-3.03724 4.1875,-5.46875 1.02316,-2.49303 1.71165,-5.39513 2.0625,-8.75 0.38001,-3.3856 0.56246,-7.44759 0.5625,-12.1875 -4e-5,-4.67829 -0.18249,-8.74027 -0.5625,-12.1875 -0.35085,-3.44713 -1.04136,-6.38048 -2.09375,-8.78125 -1.02324,-2.36988 -2.4355,-4.17459 -4.21875,-5.375 -1.7541,-1.2003 -4.00402,-1.78119 -6.78125,-1.78125 z m -285.93751,110.5625 c 7.83476,6e-5 13.56039,2.96608 17.15625,8.90625 3.62501,5.90951 5.43745,14.87099 5.4375,26.84375 -5e-5,12.34217 -1.84777,21.40117 -5.53125,27.1875 -3.65433,5.75557 -9.34468,8.625 -17.0625,8.625 -7.83483,0 -13.56246,-2.93335 -17.1875,-8.78125 -3.59583,-5.84788 -5.37501,-14.81078 -5.375,-26.9375 -10e-6,-12.21899 1.81445,-21.24532 5.46875,-27.0625 3.65428,-5.84783 9.34663,-8.78119 17.09375,-8.78125 z m 57.1875,0 c 7.83476,6e-5 13.56038,2.96608 17.15625,8.90625 3.625,5.90951 5.43745,14.87099 5.4375,26.84375 -5e-5,12.34217 -1.84777,21.40117 -5.53125,27.1875 -3.65433,5.75557 -9.34467,8.625 -17.0625,8.625 -7.83482,0 -13.56245,-2.93335 -17.1875,-8.78125 -3.59583,-5.84788 -5.37501,-14.81078 -5.375,-26.9375 -10e-6,-12.21899 1.81445,-21.24532 5.46875,-27.0625 3.65427,-5.84783 9.34663,-8.78119 17.09375,-8.78125 z m 171.5625,0 c 7.83476,6e-5 13.56038,2.96608 17.15625,8.90625 3.625,5.90951 5.43745,14.87099 5.4375,26.84375 -5e-5,12.34217 -1.84777,21.40117 -5.53125,27.1875 -3.65433,5.75557 -9.34467,8.625 -17.0625,8.625 -7.83482,0 -13.56245,-2.93335 -17.1875,-8.78125 -3.59583,-5.84788 -5.40626,-14.81078 -5.40625,-26.9375 -10e-6,-12.21899 1.84571,-21.24532 5.5,-27.0625 3.65428,-5.84783 9.34663,-8.78119 17.09375,-8.78125 z m 57.18751,0 c 7.83477,6e-5 13.52913,2.96608 17.125,8.90625 3.62501,5.90951 5.43745,14.87099 5.4375,26.84375 -5e-5,12.34217 -1.81652,21.40117 -5.5,27.1875 -3.65433,5.75557 -9.34467,8.625 -17.0625,8.625 -7.83482,0 -13.56246,-2.93335 -17.1875,-8.78125 -3.59584,-5.84788 -5.40626,-14.81078 -5.40625,-26.9375 -10e-6,-12.21899 1.81445,-21.24532 5.46875,-27.0625 3.65428,-5.84783 9.37788,-8.78119 17.125,-8.78125 z m 57.1875,0 c 7.83476,6e-5 13.52913,2.96608 17.125,8.90625 3.62501,5.90951 5.43745,14.87099 5.4375,26.84375 -5e-5,12.34217 -1.84778,21.40117 -5.53125,27.1875 -3.65433,5.75557 -9.31343,8.625 -17.03125,8.625 -7.83482,0 -13.59371,-2.93335 -17.21875,-8.78125 -3.59583,-5.84788 -5.375,-14.81078 -5.375,-26.9375 0,-12.21899 1.81445,-21.24532 5.46875,-27.0625 3.65428,-5.84783 9.37788,-8.78119 17.125,-8.78125 z m -229.93751,1.15625 6.8125,0 0,61.96875 13.3125,0 0,7 -35.34375,0 0,-7 13.59375,0 0,-46.09375 -13.59375,0 0,-6.28125 c 1.84175,6e-5 3.83262,-0.12965 5.9375,-0.4375 2.10486,-0.3385 3.69956,-0.82187 4.78125,-1.4375 1.34476,-0.7694 2.39614,-1.73661 3.15625,-2.90625 0.78931,-1.2003 1.22679,-2.81184 1.34375,-4.8125 z m 57.1875,0 6.8125,0 0,61.96875 13.3125,0 0,7 -35.34375,0 0,-7 13.59375,0 0,-46.09375 -13.59375,0 0,-6.28125 c 1.84176,6e-5 3.83261,-0.12965 5.9375,-0.4375 2.10485,-0.3385 3.69956,-0.82187 4.78125,-1.4375 1.34476,-0.7694 2.39613,-1.73661 3.15625,-2.90625 0.7893,-1.2003 1.22679,-2.81184 1.34375,-4.8125 z m -170.375,6.46875 c -2.74806,6e-5 -4.99999,0.61221 -6.8125,1.8125 -1.78331,1.20042 -3.22884,3.00606 -4.28125,5.4375 -0.99399,2.27766 -1.65122,5.24368 -2.03125,8.90625 -0.35083,3.66268 -0.53127,7.692 -0.53125,12.0625 -2e-5,4.80146 0.14716,8.79954 0.46875,12.03125 0.32157,3.23175 1.01004,6.13291 2.0625,8.6875 0.96471,2.40073 2.33968,4.2381 4.09375,5.5 1.78328,1.26192 4.10779,1.87501 7.03125,1.875 2.74799,1e-5 5.03119,-0.58088 6.84375,-1.78125 1.81249,-1.20034 3.22475,-3.03725 4.21875,-5.46875 1.02316,-2.49304 1.71165,-5.39513 2.0625,-8.75 0.38001,-3.3856 0.56246,-7.44759 0.5625,-12.1875 -4e-5,-4.67828 -0.18249,-8.74028 -0.5625,-12.1875 -0.35085,-3.44714 -1.04135,-6.38048 -2.09375,-8.78125 -1.02324,-2.36988 -2.43549,-4.14333 -4.21875,-5.34375 -1.75409,-1.20029 -4.03527,-1.81244 -6.8125,-1.8125 z m 57.1875,0 c -2.74805,6e-5 -5.03125,0.61221 -6.84375,1.8125 -1.78332,1.20042 -3.19758,3.00606 -4.25,5.4375 -0.99398,2.27766 -1.68247,5.24368 -2.0625,8.90625 -0.35082,3.66268 -0.50001,7.692 -0.5,12.0625 -10e-6,4.80146 0.14716,8.79954 0.46875,12.03125 0.32156,3.23175 1.01005,6.13291 2.0625,8.6875 0.96471,2.40073 2.30842,4.2381 4.0625,5.5 1.78327,1.26192 4.13904,1.87501 7.0625,1.875 2.748,1e-5 5.03119,-0.58088 6.84375,-1.78125 1.81249,-1.20034 3.22474,-3.03725 4.21875,-5.46875 1.02316,-2.49304 1.71164,-5.39513 2.0625,-8.75 0.38,-3.3856 0.56245,-7.44759 0.5625,-12.1875 -5e-5,-4.67828 -0.1825,-8.74028 -0.5625,-12.1875 -0.35086,-3.44714 -1.04136,-6.38048 -2.09375,-8.78125 -1.02324,-2.36988 -2.43549,-4.14333 -4.21875,-5.34375 -1.75409,-1.20029 -4.03527,-1.81244 -6.8125,-1.8125 z m 171.5625,0 c -2.74805,6e-5 -5.03125,0.61221 -6.84375,1.8125 -1.78332,1.20042 -3.19758,3.00606 -4.25,5.4375 -0.99398,2.27766 -1.68247,5.24368 -2.0625,8.90625 -0.35082,3.66268 -0.53126,7.692 -0.53125,12.0625 -10e-6,4.80146 0.14716,8.79954 0.46875,12.03125 0.32156,3.23175 1.01005,6.13291 2.0625,8.6875 0.96471,2.40073 2.33967,4.2381 4.09375,5.5 1.78327,1.26192 4.13904,1.87501 7.0625,1.875 2.748,1e-5 5.03119,-0.58088 6.84375,-1.78125 1.81249,-1.20034 3.19349,-3.03725 4.1875,-5.46875 1.02316,-2.49304 1.71164,-5.39513 2.0625,-8.75 0.38001,-3.3856 0.5937,-7.44759 0.59375,-12.1875 -5e-5,-4.67828 -0.21374,-8.74028 -0.59375,-12.1875 -0.35086,-3.44714 -1.04136,-6.38048 -2.09375,-8.78125 -1.02324,-2.36988 -2.43549,-4.14333 -4.21875,-5.34375 -1.75409,-1.20029 -4.00402,-1.81244 -6.78125,-1.8125 z m 57.18751,0 c -2.74805,6e-5 -5.03125,0.61221 -6.84375,1.8125 -1.78332,1.20042 -3.19759,3.00606 -4.25,5.4375 -0.99399,2.27766 -1.68247,5.24368 -2.0625,8.90625 -0.35082,3.66268 -0.53127,7.692 -0.53125,12.0625 -2e-5,4.80146 0.14716,8.79954 0.46875,12.03125 0.32157,3.23175 1.01005,6.13291 2.0625,8.6875 0.96472,2.40073 2.33968,4.2381 4.09375,5.5 1.78328,1.26192 4.13905,1.87501 7.0625,1.875 2.748,1e-5 5.03119,-0.58088 6.84375,-1.78125 1.81249,-1.20034 3.1935,-3.03725 4.1875,-5.46875 1.02316,-2.49304 1.71165,-5.39513 2.0625,-8.75 0.38001,-3.3856 0.56246,-7.44759 0.5625,-12.1875 -4e-5,-4.67828 -0.18249,-8.74028 -0.5625,-12.1875 -0.35085,-3.44714 -1.04136,-6.38048 -2.09375,-8.78125 -1.02324,-2.36988 -2.4355,-4.14333 -4.21875,-5.34375 -1.7541,-1.20029 -4.00402,-1.81244 -6.78125,-1.8125 z m 57.1875,0 c -2.74806,6e-5 -5.03124,0.61221 -6.84375,1.8125 -1.78331,1.20042 -3.22883,3.00606 -4.28125,5.4375 -0.99399,2.27766 -1.65122,5.24368 -2.03125,8.90625 -0.35083,3.66268 -0.53126,7.692 -0.53125,12.0625 -10e-6,4.80146 0.14715,8.79954 0.46875,12.03125 0.32156,3.23175 1.01005,6.13291 2.0625,8.6875 0.96472,2.40073 2.33967,4.2381 4.09375,5.5 1.78327,1.26192 4.13904,1.87501 7.0625,1.875 2.74799,1e-5 4.99994,-0.58088 6.8125,-1.78125 1.81249,-1.20034 3.22475,-3.03725 4.21875,-5.46875 1.02317,-2.49304 1.71164,-5.39513 2.0625,-8.75 0.38,-3.3856 0.56246,-7.44759 0.5625,-12.1875 -4e-5,-4.67828 -0.1825,-8.74028 -0.5625,-12.1875 -0.35086,-3.44714 -1.04135,-6.38048 -2.09375,-8.78125 -1.02324,-2.36988 -2.4355,-4.14333 -4.21875,-5.34375 -1.7541,-1.20029 -4.00403,-1.81244 -6.78125,-1.8125 z"
       style="fill:#37c8ab;fill-opacity:1;stroke:none" />
    <rect
       style="fill:#37c8ab;stroke:#ffffff;stroke-width:40;stroke-miterlimit:4;stroke-opacity:1;stroke-dasharray:none"
       id="rect4087"
       width="580"
       height="580"
       x="-1087.5568"
       y="-76.353241"
       ry="40"
       rx="40" />
  </g>
</svg>
